<svg height="511pt" viewBox="0 0 511.99871 511" width="511pt" xmlns="http://www.w3.org/2000/svg"><g fill="#fab617"><path d="m433.703125 74.359375 24.859375-63.40625h-99.671875l-5.144531 13.117187 4.78125 12.238282c17.761718 11.441406 60.164062 47.941406 60.164062 164.257812 0 161.53125-195.652344 240.167969-254.886718 249.859375-40.140626 6.566407-79.933594 9.421875-109.304688 8.570313-3.921875 2.816406-9.160156 5.945312-16.050781 9 2.15625 24.769531 18.3125 34.03125 18.3125 34.03125s21.539062-10.339844 46.847656-3.878906c25.308594 6.464843 83.824219 4.847656 143.058594-4.84375 59.234375-9.695313 254.882812-88.332032 254.882812-249.859376 0-146.839843-67.585937-166.488281-67.847656-169.085937zm0 0"/><path d="m361.085938 88.238281c-17.394532 6.464844-41.183594 20.851563-60.953126 52.867188-55.492187 89.894531-135.492187 123.882812-175.261718 135.164062-39.765625 11.285157-65.253906 45.464844-65.253906 45.464844s-5.964844 9.046875-26.570313 17.425781c.234375 2.496094.648437 4.8125 1.179687 6.976563 7.964844-2.4375 23.964844-5.886719 41.84375-1.695313 0 0 87.894532-19.089844 160.582032-93.664062 72.683594-74.582032 115.515625-129.078125 122.855468-156.25.601563-2.234375 1.121094-4.320313 1.578126-6.289063zm0 0"/><path d="m327.082031 225.492188c8.621094-18.542969 15.902344-33.726563 22.007813-46.46875-4.917969 6.703124-10.316406 13.589843-16.242188 20.6875-72.046875 86.308593-158.890625 145.007812-198.859375 155.542968s-66.808593 46.417969-66.808593 46.417969-6.328126 9.527344-27.152344 17.71875c.140625 3.179687.527344 6.109375 1.085937 8.808594 8.558594-2.148438 23.265625-4.253907 39.234375.546875.617188.183594 1.265625.363281 1.921875.539062 11.273438-10.804687 27.527344-23.191406 47.367188-29.324218 39.488281-12.203126 150.058593-72.511719 197.445312-174.46875zm0 0"/></g><path d="m236.636719 469.3125c-5.03125 0-9.464844-3.644531-10.300781-8.769531-.925782-5.695313 2.9375-11.066407 8.632812-11.996094l.378906-.0625c5.691406-.957031 11.078125 2.882813 12.035156 8.578125.953126 5.6875-2.886718 11.078125-8.578124 12.035156l-.472657.078125c-.570312.089844-1.136719.136719-1.695312.136719zm0 0"/><path d="m270.023438 460.371094c-4.34375 0-8.398438-2.726563-9.886719-7.0625-1.871094-5.457032 1.039062-11.402344 6.496093-13.273438 23.191407-7.953125 102.566407-38.867187 150.320313-102.734375 22.96875-30.71875 34.871094-64.449219 35.378906-100.257812.082031-5.773438 4.820313-10.394531 10.597657-10.300781 5.769531.082031 10.382812 4.824218 10.300781 10.597656-.574219 40.308594-13.875 78.152344-39.539063 112.476562-51.335937 68.660156-135.65625 101.546875-160.277344 109.988282-1.125.386718-2.269531.566406-3.390624.566406zm0 0"/><path d="m482.472656 108.265625c-13.03125-21.765625-27.269531-32.699219-35.878906-38.164063l21.699219-55.335937c1.261719-3.21875.851562-6.851563-1.09375-9.703125-1.949219-2.855469-5.179688-4.5625-8.636719-4.5625h-109.941406c-3.453125 0-6.683594 1.703125-8.628906 4.554688-1.945313 2.851562-2.359376 6.480468-1.105469 9.695312l14.121093 36.148438c-17.464843 2.953124-55.136718 14.789062-84.359374 62.125-55.789063 90.371093-136.925782 121.4375-169.222657 130.601562-42.683593 12.109375-69.652343 47.757812-70.78125 49.269531-.199219.269531-.167969.191407-.269531.367188-.769531.933593-6.425781 7.347656-21.859375 13.621093-4.273437 1.738282-6.902344 6.074219-6.46875 10.667969 2.671875 28.203125 23.105469 39.261719 23.972656 39.71875 1.511719.796875 3.183594 1.195313 4.859375 1.195313 1.425782 0 2.851563-.289063 4.179688-.859375.125-.054688 8.171875-3.445313 19.71875-4.410157-10.703125 9.773438-16.9375 17.980469-17.476563 18.703126-.191406.253906-.164062.1875-.269531.363281-.738281.914062-6.605469 7.699219-22.34375 13.894531-4.15625 1.632812-6.8125 5.730469-6.613281 10.191406 1.339843 29.953125 20.898437 42.617188 21.726562 43.144532 1.695313 1.066406 3.628907 1.609374 5.574219 1.609374 1.398438 0 2.800781-.28125 4.121094-.847656.136718-.058594 10.351562-4.203125 24.003906-3.929687-3.199219 3.902343-5.015625 6.519531-5.289062 6.917969-.175782.261718-.152344.195312-.253907.375-.695312.941406-6.273437 7.972656-21.738281 14.820312-4.082031 1.808594-6.566406 6.011719-6.179688 10.460938 2.597657 29.867187 22.667969 41.703124 23.519532 42.191406 1.597656.914062 3.390625 1.371094 5.191406 1.371094 1.53125 0 3.066406-.332032 4.484375-.996094.183594-.085938 18.699219-8.578125 39.789063-3.191406 27.332031 6.976562 87.917968 5.0625 147.328124-4.660157 30.222657-4.945312 96.207032-27.632812 154.125-69.859375 71.648438-52.242187 109.523438-118.050781 109.523438-190.3125 0-56.96875-9.933594-102.449218-29.527344-135.175781zm-451.90625 228.066406c-2.644531-2.429687-6.28125-6.785156-8.332031-13.597656 15.460937-7.601563 21.628906-15.15625 23.253906-17.460937 1.621094-2.109376 24.8125-31.660157 59.644531-41.542969 34.644532-9.828125 121.664063-43.121094 181.300782-139.726563 24.558594-39.785156 55.109375-49.8125 68.890625-52.339844-6.851563 30.753907-24.257813 62.199219-54.007813 97.835938-73.835937 88.453125-159.117187 143.074219-193.503906 152.140625-10.867188 2.863281-20.789062 7.390625-29.582031 12.578125-20.476563-4.738281-38.683594-.695312-47.664063 2.113281zm5.148438 82.507813c-2.671875-2.964844-6.28125-8.273438-7.925782-16.46875 16.09375-7.691406 22.746094-15.871094 24.292969-18.011719 1.324219-1.71875 26.042969-33.28125 61.058594-42.511719 45.082031-11.886718 133.796875-74.589844 204.21875-158.953125 22.300781-26.71875 38.195313-51.488281 48.347656-75.601562-1.363281 15.730469-8.683593 31.011719-26.390625 67.945312-5.894531 12.300781-13.234375 27.609375-21.710937 45.851563-44.605469 95.96875-149.878907 156.164062-191.054688 168.890625-19.257812 5.953125-35.261719 17.113281-47.128906 27.695312-18.496094-4.515625-35.003906-1.34375-43.707031 1.164063zm209.265625 64.148437c-55.972657 9.160157-114.339844 11.277344-138.785157 5.035157-6.925781-1.769532-13.589843-2.441407-19.738281-2.441407-11.871093 0-21.796875 2.519531-27.855469 4.542969-2.792968-2.851562-6.625-8.003906-8.613281-16.121094 15.792969-8.378906 22.089844-16.851562 23.523438-19.027344 1.246093-1.777343 24.414062-34.273437 59.210937-45.027343 20.578125-6.363281 58.859375-24.648438 99.011719-55.253907 33.078125-25.214843 78.113281-67.332031 104.824219-124.796874 8.425781-18.128907 15.429687-32.738282 21.605468-45.625 27.851563-58.105469 32.871094-68.574219 25.527344-111.671876-.117187-.699218-.308594-1.382812-.566406-2.046874l-5.433594-13.910157c-.011718-.023437-.019531-.050781-.03125-.078125l-13.738281-35.167968h79.320313l-19.269532 49.144531c-.605468 1.546875-.832031 3.210937-.667968 4.863281.570312 5.652344 4.71875 8.019531 7.746093 9.75 49.632813 28.355469 60.050781 101.730469 60.050781 158.289062 0 150.210938-183.039062 229.222657-246.121093 239.542969zm0 0"/></svg>