<?xml version="1.0" encoding="iso-8859-1"?>
<!-- Generator: Adobe Illustrator 21.0.0, SVG Export Plug-In . SVG Version: 6.00 Build 0)  -->
<svg xmlns="http://www.w3.org/2000/svg" xmlns:xlink="http://www.w3.org/1999/xlink" version="1.1" id="Capa_1" x="0px" y="0px" viewBox="0 0 511.822 511.822" style="enable-background:new 0 0 511.822 511.822;" xml:space="preserve" width="512" height="512">
<g>
	<g>
		<g>
			<path style="fill:#9CDD05;" d="M73.094,481.103L51.881,459.89c-5.863-5.863-5.863-15.351,0-21.213     c40.935-40.935,107.558-40.935,148.492,0l21.213,21.213c5.863,5.863,5.863,15.351,0,21.213     C180.652,522.038,114.029,522.038,73.094,481.103z"/>
		</g>
	</g>
	<g>
		<g>
			<path style="fill:#C3EA21;" d="M73.094,438.677l-21.213-21.213c-40.935-40.935-40.935-107.558,0-148.492     c5.863-5.863,15.351-5.863,21.213,0l21.213,21.213c40.935,40.935,40.935,107.558,0,148.492     C88.445,444.54,78.957,444.54,73.094,438.677z"/>
		</g>
	</g>
	<path style="fill:#9CDD05;" d="M242.193,290.791L25.668,507.317c-5.939,5.939-15.273,5.94-21.213,0s-5.939-15.274,0-21.213   L220.98,269.578c5.94-5.94,15.273-5.94,21.213,0C248.134,275.518,248.134,284.851,242.193,290.791z"/>
	<path style="fill:#66BB00;" d="M242.193,290.791L25.668,507.317c-5.939,5.939-15.273,5.94-21.213,0l237.739-237.739   C248.134,275.518,248.134,284.851,242.193,290.791z"/>
	<path style="fill:#C3EA21;" d="M298.197,421.041c-5.091,1.271-10.182,0-13.789-3.607c-1.908-1.484-3.818-3.394-5.516-5.091   c-32.668-32.668-53.245-74.034-60.245-119.218c-0.637-3.182-1.06-6.576-1.485-9.971c-48.79-5.514-94.399-26.94-129.401-61.942   l-4.666-4.666c-3.606-3.606-5.091-8.91-4.031-14.212c1.06-4.88,5.091-8.91,9.759-10.608c29.699-9.757,60.245-13.152,91.005-9.97   l72.336,77.852l67.458,72.549c1.271,27.154-2.333,53.67-10.819,79.125C307.318,416.161,303.288,419.767,298.197,421.041z"/>
	<path style="fill:#9CDD05;" d="M298.197,421.041c-5.091,1.271-10.182,0-13.789-3.607c-1.908-1.484-3.818-3.394-5.516-5.091   c-32.668-32.668-53.245-74.034-60.245-119.218l33.517-33.517l67.458,72.549c1.271,27.154-2.333,53.67-10.819,79.125   C307.318,416.161,303.288,419.767,298.197,421.041z"/>
	<g>
		<path style="fill:#D33C80;" d="M282.994,106.263c-3.905-3.905-5.355-9.664-3.75-14.978c1.678-5.51,6.381-9.571,12.067-10.451    c26.278-4.071,48.175-23.274,57.124-50.143l6.805-20.416c1.968-5.904,7.396-9.985,13.6-10.244    c6.236-0.269,11.964,3.366,14.418,9.074l26.206,61.154c17.06,39.806,16.676,85.288-1.057,124.814    c-1.978,4.402-5.945,7.582-10.669,8.556c-4.734,0.963-9.633-0.394-13.186-3.677l-101.125-93.274    C283.273,106.543,283.139,106.408,282.994,106.263z"/>
	</g>
	<g>
		<path style="fill:#D94F88;" d="M501.632,156.511c5.727-1.91,9.97-7.424,10.182-13.577c0.211-6.151-3.606-12.092-9.334-14.425    l-60.882-26.092c-8.061-3.395-15.91-6.153-24.183-8.061c-67.245-16.758-138.523,13.364-173.524,76.368    c-2.333,4.029-2.545,8.908-0.423,13.575c0.636,1.485,1.696,2.97,2.969,4.243c2.121,2.121,4.668,3.394,7.849,4.029l54.73,10.183    l106.702,19.728c7.425,1.485,14.85-2.969,17.184-10.394c3.394-11.455,9.545-21.85,18.029-30.335    c8.061-8.061,18.244-14.425,30.124-18.243L501.632,156.511z"/>
	</g>
	<path style="fill:#D33C80;" d="M481.054,163.512c-11.879,3.818-22.063,10.182-30.124,18.243   c-8.484,8.484-14.636,18.88-18.029,30.335c-2.334,7.425-9.759,11.879-17.184,10.394l-106.702-19.728L417.415,94.357   c8.273,1.908,16.122,4.666,24.183,8.061l60.882,26.092c5.728,2.333,9.545,8.273,9.334,14.425   c-0.212,6.153-4.455,11.667-10.182,13.577L481.054,163.512z"/>
	<g>
		<path style="fill:#FA5E97;" d="M190.238,260.194c-41.362-41.132-31.301-98.277,3.532-133.111    c13.32-13.32,28.112-22.332,44.177-27.459c12.979-4.133,24.559-12.171,33.498-23.223c5.863-7.271,10.358-15.516,13.351-24.497    l6.805-20.416c1.968-5.904,7.396-9.985,13.6-10.244c6.225-0.28,11.995,3.335,14.418,9.074l26.206,61.154    c32.41,75.624-1.626,154.055-51.749,183.337C258.466,295.608,219.841,289.797,190.238,260.194z"/>
	</g>
	<g>
		<path style="fill:#FF7CB9;" d="M412.324,273.82c6.788-21.637,24.608-39.032,47.517-46.668l20.577-7.001    c5.727-1.91,9.97-7.424,10.182-13.577c0.211-6.151-3.606-12.092-9.334-14.425l-60.882-26.092    c-20.365-8.909-40.306-14.001-59.186-15.485c-38.819-3.183-73.185,9.545-101.398,37.759c-26.517,26.517-37.971,61.73-29.91,93.55    c4.242,18.668,15.484,36.275,33.941,50.488c33.517,25.456,85.065,21.426,122.188-15.698    C398.111,304.579,407.02,289.729,412.324,273.82z"/>
	</g>
	<path style="fill:#FA5E97;" d="M386.02,316.671c-37.123,37.123-88.671,41.154-122.188,15.698   c-18.457-14.212-29.699-31.82-33.941-50.488l131.308-131.308c18.88,1.484,38.821,6.576,59.186,15.485l60.882,26.092   c5.728,2.333,9.545,8.273,9.334,14.425c-0.212,6.153-4.455,11.667-10.182,13.577l-20.577,7.001   c-22.909,7.636-40.729,25.031-47.517,46.668C407.02,289.729,398.111,304.579,386.02,316.671z"/>
</g>















</svg>
