<svg width="186.51494140625px" height="70.40498046875px" xmlns="http://www.w3.org/2000/svg" viewBox="156.742529296875 39.797509765625 186.51494140625 70.40498046875" style="background: rgba(0, 0, 0, 0);" preserveAspectRatio="xMidYMid"><defs><filter id="editing-metal-beveled"><feGaussianBlur stdDeviation="4" in="SourceAlpha" result="blur"></feGaussianBlur><feSpecularLighting surfaceScale="5" specularConstant="0.8" specularExponent="7.5" lighting-color="#fff" in="blur" result="specular"><fePointLight x="-250" y="-50" z="300"></fePointLight></feSpecularLighting><feComposite operator="in" in="specular" in2="SourceAlpha" result="comp"></feComposite><feComposite in="SourceGraphic" in2="comp" operator="arithmetic" k1="0" k2="1" k3="1" k4="0"></feComposite></filter></defs><g filter="url(#editing-metal-beveled)"><g transform="translate(187.7100009918213, 86.98499965667725)"><path d="M6.10-18.43L5.99-5.77L6.07 0L3.33 0L3.44-5.55L3.33-18.43L6.10-18.43ZM22.98-12.36L22.98-12.36Q28.01-11.36 28.01-6.62L28.01-6.62L28.01-6.62Q28.01-3.26 25.57-1.55L25.57-1.55L25.57-1.55Q23.13 0.15 18.28 0.15L18.28 0.15L18.28 0.15Q15.02 0.15 13.06 0L13.06 0L13.02 0L13.21-7.14L13.02-23.72L19.61-23.75L19.61-23.75Q22.94-23.75 24.73-22.27L24.73-22.27L24.73-22.27Q26.53-20.79 26.53-17.98L26.53-17.98L26.53-17.98Q26.53-15.98 25.60-14.54L25.60-14.54L25.60-14.54Q24.68-13.10 22.98-12.36L22.98-12.36ZM23.49-17.65L23.49-17.65Q23.49-19.57 22.44-20.44L22.44-20.44L22.44-20.44Q21.39-21.31 19.02-21.31L19.02-21.31L16.02-21.31L15.95-13.36L20.02-13.25L20.02-13.25Q23.49-14.06 23.49-17.65L23.49-17.65ZM18.72-2.33L18.72-2.33Q21.76-2.33 23.38-3.48L23.38-3.48L23.38-3.48Q25.01-4.63 25.01-6.77L25.01-6.77L25.01-6.77Q25.01-10.40 20.46-10.91L20.46-10.91L15.91-10.88L15.87-7.40L15.98-2.44L15.98-2.44Q17.43-2.33 18.72-2.33L18.72-2.33ZM47.06-18.43L46.95-9.06L46.95-6.40L46.95-6.40Q46.99-3.26 45.05-1.52L45.05-1.52L45.05-1.52Q43.10 0.22 39.48 0.22L39.48 0.22L39.48 0.22Q35.89 0.22 34.00-1.50L34.00-1.50L34.00-1.50Q32.12-3.22 32.19-6.40L32.19-6.40L32.23-9.21L32.19-18.43L34.96-18.43L34.82-6.84L34.82-6.84Q34.78-4.51 35.98-3.33L35.98-3.33L35.98-3.33Q37.18-2.15 39.59-2.15L39.59-2.15L39.59-2.15Q41.96-2.15 43.18-3.33L43.18-3.33L43.18-3.33Q44.40-4.51 44.36-6.84L44.36-6.84L44.25-18.43L47.06-18.43ZM60.31-18.57L60.31-18.57Q64.53-18.57 66.77-16.32L66.77-16.32L66.77-16.32Q69.00-14.06 69.00-9.84L69.00-9.84L69.00-9.84Q69.00-5.00 66.56-2.40L66.56-2.40L66.56-2.40Q64.12 0.18 59.57 0.18L59.57 0.18L59.57 0.18Q58.27 0.18 56.48 0.13L56.48 0.13L56.48 0.13Q54.69 0.07 53.09 0L53.09 0L53.21-5.55L53.09-18.43L60.31-18.57ZM60.01-2.07L60.01-2.07Q62.97-2.07 64.58-3.87L64.58-3.87L64.58-3.87Q66.19-5.66 66.19-9.29L66.19-9.29L66.19-9.29Q66.19-12.84 64.68-14.54L64.68-14.54L64.68-14.54Q63.16-16.24 60.09-16.24L60.09-16.24L60.09-16.24Q58.27-16.24 55.83-16.09L55.83-16.09L55.76-5.77L55.80-2.29L55.80-2.29Q56.87-2.22 58.05-2.15L58.05-2.15L58.05-2.15Q59.24-2.07 60.01-2.07L60.01-2.07ZM82.03-18.61L82.03-18.61Q84.91-18.61 87.84-17.35L87.84-17.35L86.91-14.69L86.58-14.69L86.58-14.69Q85.21-15.58 84.06-15.93L84.06-15.93L84.06-15.93Q82.92-16.28 81.58-16.28L81.58-16.28L81.58-16.28Q78.44-16.28 76.87-14.50L76.87-14.50L76.87-14.50Q75.29-12.73 75.29-8.95L75.29-8.95L75.29-8.95Q75.29-5.33 76.74-3.72L76.74-3.72L76.74-3.72Q78.18-2.11 81.33-2.11L81.33-2.11L81.33-2.11Q82.25-2.11 83.10-2.28L83.10-2.28L83.10-2.28Q83.95-2.44 85.17-2.89L85.17-2.89L85.17-4.74L85.14-7.36L87.69-7.55L87.69-0.89L87.69-0.89Q83.95 0.22 81.21 0.22L81.21 0.22L81.21 0.22Q76.85 0.22 74.61-2.13L74.61-2.13L74.61-2.13Q72.37-4.48 72.37-8.84L72.37-8.84L72.37-8.84Q72.37-13.58 74.91-16.09L74.91-16.09L74.91-16.09Q77.44-18.61 82.03-18.61L82.03-18.61ZM99.83-2.22L104.75-2.37L104.97-2.15L104.71 0L93.50 0L93.61-5.55L93.50-18.43L104.78-18.43L104.97-18.20L104.75-16.06L100.08-16.21L96.24-16.17L96.20-10.58L99.86-10.54L103.08-10.66L103.27-10.40L103.05-8.21L99.64-8.32L96.20-8.29L96.16-5.77L96.20-2.26L99.83-2.22ZM121.10-18.43L121.25-18.20L121.06-15.87L117.62-16.13L115.77-16.13L115.66-5.77L115.77 0L113.00 0L113.11-5.55L113.03-16.13L111.19-16.13L107.67-15.87L107.45-16.13L107.67-18.43L121.10-18.43Z" fill="#444"></path></g></g><style>text {
  font-size: 64px;
  font-family: Arial Black;
  dominant-baseline: central;
  text-anchor: middle;
}</style></svg>