<svg width="195.8650390625px" height="76.43999023437499px" xmlns="http://www.w3.org/2000/svg" viewBox="152.06748046875 36.780004882812506 195.8650390625 76.43999023437499" style="background: rgba(0, 0, 0, 0);" preserveAspectRatio="xMidYMid"><defs><linearGradient id="editing-shiny-gradient" x1="0.04322727117869957" x2="0.9567727288213004" y1="0.2966316784620999" y2="0.7033683215379001" gradientUnits="objectBoundingBox"><stop offset="0.0" stop-color="#ffb200"></stop><stop offset="0.5" stop-color="#e10057"></stop><stop offset="1.0" stop-color="#5A1A80"></stop></linearGradient><linearGradient id="editing-shiny-gradient2" x1="0" x2="0" y1="0" y2="1"><stop offset="0.2" stop-color="#fff" stop-opacity="0.8"></stop><stop offset="0.8" stop-color="#fff" stop-opacity="0"></stop></linearGradient><filter id="editing-shiny2" x="-100%" y="-100%" width="300%" height="300%"><feMorphology operator="erode" radius="2"></feMorphology></filter><filter id="editing-shiny" x="-100%" y="-100%" width="300%" height="300%"><feFlood flood-color="#fff" result="flood"></feFlood><feConvolveMatrix in="SourceGraphic" result="conv" order="8,8" divisor="1" kernelMatrix="0 0 0 0 0 0 0 0 0 0 0 1 1 0 0 0 0 0 0 1 1 0 0 0 0 0 1 0 0 1 0 0 0 0 1 0 0 1 0 0 0 1 0 0 0 0 1 0 0 1 1 0 0 1 1 0 0 0 0 1 1 0 0 0 "></feConvolveMatrix><feOffset dx="0" dy="4" in="conv" result="offset"></feOffset><feComposite operator="in" in="flood" in2="offset" result="comp"></feComposite><feGaussianBlur in="offset" stdDeviation="3" result="shadow"></feGaussianBlur><feColorMatrix in="shadow" type="matrix" values="0.7 0 0 0 0  0 0.7 0 0 0  0 0 0.7 0 0  0 0 0 0.3 0" result="dark-shadow"></feColorMatrix><feOffset dx="0" dy="4" in="dark-shadow" result="offset-shadow"></feOffset><feOffset dx="0" dy="2" in="conv" result="offset-2"></feOffset><feComposite operator="out" in="offset" in2="offset-2" result="edge-diff"></feComposite><feGaussianBlur in="edge-diff" stdDeviation="1" result="edge-blur"></feGaussianBlur><feColorMatrix in="edge-blur" result="edge-shadow" type="matrix" values="0 0 0 0 0  0 0 0 0 0  0 0 0 0 0  0 0 0 0.5 0"></feColorMatrix><feComposite operator="in" in="edge-shadow" in2="offset" result="edge-shadow-in"></feComposite><feOffset dx="0" dy="1" in="edge-shadow-in" result="edge-shadow-final"></feOffset><feMerge result="out"><feMergeNode in="offset-shadow"></feMergeNode><feMergeNode in="comp"></feMergeNode><feMergeNode in="edge-shadow-final"></feMergeNode><feMergeNode in="SourceGraphic"></feMergeNode></feMerge></filter></defs><g filter="url(#editing-shiny)"><g transform="translate(183.73341143131256, 88.55999946594238)"><path d="M3.44-26.08L3.44-26.08Q3.92-26.05 4.38-26.07L4.38-26.07L4.38-26.07Q4.85-26.08 5.18-26.08L5.18-26.08L5.18-26.08Q5.99-26.08 6.36-26.05L6.36-26.05L6.36-26.05Q6.81-26.01 6.99-25.86L6.99-25.86L6.99-25.86Q7.18-25.71 7.18-25.46L7.18-25.46L7.18-25.46Q7.18-25.27 7.14-25.05L7.14-25.05L7.14-25.05Q7.10-24.83 7.07-24.64L7.07-24.64L7.07-24.64Q6.66-21.50 6.62-18.17L6.62-18.17L6.62-18.17Q6.59-17.20 6.59-15.21L6.59-15.21L6.62-10.73L6.62-10.73Q6.66-10.17 6.66-9.58L6.66-9.58L6.70-8.10L6.70-8.10Q6.77-6.18 6.77-5.25L6.77-5.25L6.77-5.25Q6.77-4.55 6.73-4.40L6.73-4.40L6.73-4.40Q6.70-4.25 6.70-3.55L6.70-3.55L6.73-1.52L6.73-1.52Q6.77-1.07 6.77-0.41L6.77-0.41L6.77-0.41Q6.81 0.07 6.49 0.20L6.49 0.20L6.49 0.20Q6.18 0.33 5.66 0.30L5.66 0.30L2.29 0.30L2.29 0.30Q1.74 0.33 1.59 0.06L1.59 0.06L1.59 0.06Q1.44-0.22 1.41-0.85L1.41-0.85L1.41-0.85Q1.33-1.11 1.48-2.22L1.48-2.22L1.48-2.22Q1.63-3.26 1.63-4.00L1.63-4.00L1.63-4.00Q1.63-4.25 1.89-8.99L1.89-8.99L1.89-8.99Q2.11-12.47 2.11-12.80L2.11-12.80L2.18-16.43L2.26-19.79L2.33-21.79L2.40-23.13L2.40-24.68L2.40-24.68Q2.40-26.12 3.15-26.12L3.15-26.12L3.15-26.12Q3.33-26.12 3.44-26.08L3.44-26.08ZM20.16-12.88L20.16-12.88Q22.31-12.10 24.59-10.27L24.59-10.27L24.59-10.27Q26.86-8.44 26.86-4.81L26.86-4.81L26.86-4.81Q26.86-2.44 25.18-1.35L25.18-1.35L25.18-1.35Q23.49-0.26 21.77-0.06L21.77-0.06L21.77-0.06Q20.05 0.15 18.17 0.15L18.17 0.15L14.58 0.22L12.32 0.26L12.32 0.26Q11.73 0.26 11.51-0.11L11.51-0.11L11.51-0.11Q11.29-0.48 11.29-1.15L11.29-1.15L11.32-9.36L11.32-11.14L11.32-11.14Q11.32-12.54 11.43-13.69L11.43-13.69L11.54-18.20L11.54-18.20Q11.54-18.98 11.58-20.52L11.58-20.52L11.58-20.52Q11.62-22.05 11.65-22.46L11.65-22.46L11.65-22.46Q11.69-22.75 11.69-23.49L11.69-23.49L11.69-23.49Q11.69-24.79 11.58-25.34L11.58-25.34L11.58-25.34Q11.54-25.42 11.54-25.53L11.54-25.53L11.54-25.53Q11.54-25.75 11.95-25.86L11.95-25.86L11.95-25.86Q12.32-25.97 13.91-26.18L13.91-26.18L13.91-26.18Q15.50-26.38 16.80-26.38L16.80-26.38L16.80-26.38Q20.31-26.38 22.37-24.97L22.37-24.97L22.37-24.97Q24.42-23.57 24.42-19.65L24.42-19.65L24.42-19.65Q24.42-16.09 22.27-14.10L22.27-14.10L22.27-14.10Q21.31-13.28 20.16-12.88L20.16-12.88ZM16.13-14.76L16.13-14.76Q16.13-14.39 16.09-14.12L16.09-14.12L16.09-14.12Q16.06-13.84 16.06-13.69L16.06-13.69L16.06-13.69Q16.06-13.47 16.09-13.41L16.09-13.41L16.09-13.41Q16.13-13.36 16.32-13.36L16.32-13.36L16.32-13.36Q17.06-13.36 18.61-13.76L18.61-13.76L18.61-13.76Q20.16-14.17 21.61-15.50L21.61-15.50L21.61-15.50Q23.05-16.84 23.05-19.35L23.05-19.35L23.05-19.35Q23.05-22.02 22.13-23.31L22.13-23.31L22.13-23.31Q21.20-24.61 19.81-24.96L19.81-24.96L19.81-24.96Q18.43-25.31 16.28-25.31L16.28-25.31L16.21-22.94L16.21-22.94Q16.13-20.28 16.13-18.98L16.13-18.98L16.13-14.76ZM17.28-0.55L17.28-0.55Q20.91-0.55 22.72-1.72L22.72-1.72L22.72-1.72Q24.53-2.89 24.53-4.85L24.53-4.85L24.53-4.85Q24.53-9.80 20.28-11.58L20.28-11.58L20.28-11.58Q18.39-12.28 16.02-12.25L16.02-12.25L16.02-12.25Q15.98-12.14 15.98-11.95L15.98-11.95L15.98-11.95Q15.95-11.77 15.95-11.10L15.95-11.10L16.02-8.73L16.09-6.73L16.09-6.73Q16.09-6.22 16.06-5.99L16.06-5.99L16.02-5.03L16.09-2.85L16.17-1.15L16.17-1.15Q16.17-0.70 16.34-0.61L16.34-0.61L16.34-0.61Q16.50-0.52 16.82-0.54L16.82-0.54L16.82-0.54Q17.13-0.55 17.28-0.55L17.28-0.55ZM37.44-25.83L37.44-11.03L37.44-11.03Q37.44-10.21 37.54-9.62L37.54-9.62L37.54-9.62Q37.63-9.03 38.09-8.49L38.09-8.49L38.09-8.49Q38.55-7.95 39.59-7.95L39.59-7.95L39.59-7.95Q41.03-7.95 41.55-9.05L41.55-9.05L41.55-9.05Q42.07-10.14 42.07-11.43L42.07-11.43L42.11-13.28L42.11-13.28Q42.22-17.39 42.22-17.87L42.22-17.87L42.22-17.87Q42.22-18.91 42.18-19.28L42.18-19.28L42.18-19.28Q42.18-20.57 42.03-23.24L42.03-23.24L41.96-25.27L41.96-25.27Q41.96-25.94 42.14-26.20L42.14-26.20L42.14-26.20Q42.33-26.45 42.85-26.45L42.85-26.45L47.55-26.45L48.10-26.49L48.10-26.49Q48.47-26.49 48.71-26.27L48.71-26.27L48.71-26.27Q48.95-26.05 49.02-25.38L49.02-25.38L49.02-25.38Q49.10-24.75 49.10-21.02L49.10-21.02L49.06-13.06L49.06-13.06Q49.06-10.99 48.40-8.08L48.40-8.08L48.40-8.08Q47.73-5.18 45.62-2.70L45.62-2.70L45.62-2.70Q43.51-0.22 39.59-0.22L39.59-0.22L39.59-0.22Q30.78-0.22 30.12-8.66L30.12-8.66L30.12-8.66Q30.08-9.03 30.08-10.14L30.08-10.14L30.08-10.14Q30.08-11.29 30.15-14.17L30.15-14.17L30.15-14.17Q30.27-17.50 30.23-19.13L30.23-19.13L30.23-19.13Q30.23-21.35 30.15-23.79L30.15-23.79L30.15-23.79Q30.12-24.49 30.12-25.23L30.12-25.23L30.12-25.23Q30.12-25.38 30.10-25.79L30.10-25.79L30.10-25.79Q30.08-26.20 30.25-26.38L30.25-26.38L30.25-26.38Q30.41-26.57 30.86-26.57L30.86-26.57L33.00-26.53L33.00-26.53Q33.74-26.53 34.08-26.57L34.08-26.57L34.08-26.57Q34.89-26.64 35.41-26.64L35.41-26.64L36.89-26.60L36.89-26.60Q37.22-26.60 37.31-26.44L37.31-26.44L37.31-26.44Q37.41-26.27 37.44-25.83L37.44-25.83ZM67.23-22.72L67.23-22.72Q69.41-20.79 70.11-18.15L70.11-18.15L70.11-18.15Q70.82-15.50 70.82-12.32L70.82-12.32L70.82-12.32Q70.82-10.66 70.26-8.58L70.26-8.58L70.26-8.58Q69.71-6.51 68.73-4.74L68.73-4.74L68.73-4.74Q67.75-2.96 66.45-2.11L66.45-2.11L66.45-2.11Q64.68-0.96 62.05-0.50L62.05-0.50L62.05-0.50Q59.42-0.04 57.90-0.04L57.90-0.04L54.13-0.04L54.13-0.04Q53.72-0.04 53.61-0.22L53.61-0.22L53.61-0.22Q53.50-0.41 53.61-0.63L53.61-0.63L53.61-0.63Q53.65-0.74 53.65-0.92L53.65-0.92L53.65-0.92Q53.65-1.07 53.63-1.31L53.63-1.31L53.63-1.31Q53.61-1.55 53.61-2.00L53.61-2.00L53.61-2.00Q53.61-3.22 53.58-4.40L53.58-4.40L53.50-11.10L53.54-18.54L53.54-18.54Q53.54-19.50 53.50-20.41L53.50-20.41L53.50-20.41Q53.46-21.31 53.43-21.98L53.43-21.98L53.35-24.31L53.35-24.31Q53.39-25.16 53.46-25.49L53.46-25.49L53.46-25.49Q53.54-25.83 53.76-25.83L53.76-25.83L53.87-25.83L53.87-25.83Q54.02-25.83 54.20-25.77L54.20-25.77L54.20-25.77Q54.39-25.71 54.54-25.71L54.54-25.71L54.54-25.71Q54.83-25.71 55.26-25.75L55.26-25.75L55.26-25.75Q55.68-25.79 56.13-25.79L56.13-25.79L57.57-25.75L57.57-25.75Q59.64-25.75 61.31-25.57L61.31-25.57L61.31-25.57Q61.46-25.57 62.29-25.49L62.29-25.49L62.29-25.49Q63.12-25.42 64.44-24.72L64.44-24.72L64.44-24.72Q65.75-24.01 67.23-22.72L67.23-22.72ZM59.72-1.44L59.72-1.44Q62.27-1.29 64.38-2.37L64.38-2.37L64.38-2.37Q66.41-3.40 67.75-5.81L67.75-5.81L67.75-5.81Q69.08-8.21 69.08-12.32L69.08-12.32L69.08-12.32Q69.08-16.39 67.77-18.85L67.77-18.85L67.77-18.85Q66.45-21.31 64.45-22.53L64.45-22.53L64.45-22.53Q62.42-23.75 59.83-23.79L59.83-23.79L59.68-20.42L59.68-20.42Q59.57-18.61 59.57-15.43L59.57-15.43L59.57-15.43Q59.57-15.13 59.68-12.14L59.68-12.14L59.68-12.14Q59.79-10.88 59.79-9.77L59.79-9.77L59.75-5.00L59.75-5.00Q59.72-3.88 59.72-1.44L59.72-1.44ZM82.29-26.20L82.29-26.20Q84.80-26.20 86.12-25.34L86.12-25.34L86.12-25.34Q87.43-24.49 87.95-23.77L87.95-23.77L87.95-23.77Q88.47-23.05 88.61-22.90L88.61-22.90L88.61-22.90Q88.91-22.57 88.91-22.20L88.91-22.20L88.91-22.20Q88.91-21.76 88.58-21.42L88.58-21.42L88.58-21.42Q88.24-21.09 87.75-20.68L87.75-20.68L87.75-20.68Q87.25-20.28 86.84-19.98L86.84-19.98L86.84-19.98Q86.65-19.87 86.51-19.87L86.51-19.87L86.51-19.87Q86.17-19.87 85.84-20.20L85.84-20.20L85.84-20.20Q85.77-20.28 84.77-21.44L84.77-21.44L84.77-21.44Q83.77-22.61 81.77-22.61L81.77-22.61L81.77-22.61Q80.25-22.61 79.14-21.00L79.14-21.00L79.14-21.00Q78.03-19.39 77.46-17.11L77.46-17.11L77.46-17.11Q76.89-14.84 76.89-12.88L76.89-12.88L76.89-12.88Q76.89-10.84 77.48-8.55L77.48-8.55L77.48-8.55Q78.07-6.25 79.38-4.63L79.38-4.63L79.38-4.63Q80.70-3.00 82.69-3.00L82.69-3.00L82.69-3.00Q85.36-3.00 86.76-5.07L86.76-5.07L86.76-5.07Q87.36-6.03 87.54-7.18L87.54-7.18L86.47-7.18L84.80-7.21L81.07-7.25L81.07-7.25Q80.44-7.25 80.44-7.84L80.44-7.84L80.44-9.29L80.44-9.29Q80.44-9.66 80.55-9.75L80.55-9.75L80.55-9.75Q80.66-9.84 80.84-9.84L80.84-9.84L82.55-9.84L90.13-10.03L90.13-10.03Q90.46-10.03 90.63-9.69L90.63-9.69L90.63-9.69Q90.80-9.36 90.76-8.81L90.76-8.81L90.76-8.81Q90.76-7.51 90.28-5.46L90.28-5.46L90.28-5.46Q89.80-3.40 87.91-1.46L87.91-1.46L87.91-1.46Q86.02 0.48 82.29 0.48L82.29 0.48L82.29 0.48Q79.51 0.48 77.53-1.63L77.53-1.63L77.53-1.63Q75.55-3.74 74.57-7.05L74.57-7.05L74.57-7.05Q73.59-10.36 73.59-13.84L73.59-13.84L73.59-13.84Q73.59-17.09 74.80-19.94L74.80-19.94L74.80-19.94Q76.00-22.79 78.01-24.49L78.01-24.49L78.01-24.49Q80.03-26.20 82.29-26.20L82.29-26.20ZM109.70-24.61L109.70-24.20L109.70-24.20Q109.70-23.35 109.56-23.35L109.56-23.35L109.56-23.35Q109.33-23.35 109.06-23.40L109.06-23.40L109.06-23.40Q108.78-23.46 108.37-23.46L108.37-23.46L102.45-23.46L97.86-23.49L97.86-23.49Q97.64-23.49 96.20-23.38L96.20-23.38L95.35-23.31L95.27-22.31L95.27-22.31Q95.24-21.76 95.24-20.57L95.24-20.57L95.24-20.57Q95.24-19.98 95.31-19.02L95.31-19.02L95.31-19.02Q95.39-18.13 95.39-17.72L95.39-17.72L95.39-16.24L95.39-16.24Q95.39-15.65 95.42-15.32L95.42-15.32L95.42-15.32Q95.76-15.28 96.42-15.28L96.42-15.28L97.90-15.28L97.90-15.28Q98.12-15.28 98.79-15.35L98.79-15.35L98.79-15.35Q99.75-15.43 100.45-15.43L100.45-15.43L100.45-15.43Q100.75-15.43 102.53-15.32L102.53-15.32L103.34-15.28L103.34-15.28Q103.64-15.28 104.19-15.34L104.19-15.34L104.19-15.34Q104.75-15.39 105.27-15.39L105.27-15.39L106.49-15.35L106.49-15.35Q107.45-15.28 107.82-15.28L107.82-15.28L107.82-15.28Q108.22-15.28 108.37-15.32L108.37-15.32L108.59-15.35L108.59-15.35Q108.85-15.35 108.96-15.19L108.96-15.19L108.96-15.19Q109.08-15.02 109.04-14.87L109.04-14.87L109.04-14.87Q109.00-14.61 109.00-14.23L109.00-14.23L109.00-14.23Q109.00-13.84 108.96-13.54L108.96-13.54L108.96-13.54Q108.93-13.25 108.85-13.19L108.85-13.19L108.85-13.19Q108.78-13.13 108.41-13.13L108.41-13.13L106.93-13.28L106.93-13.28Q104.16-13.54 103.30-13.54L103.30-13.54L103.30-13.54Q100.16-13.54 98.68-13.43L98.68-13.43L98.68-13.43Q98.09-13.36 97.38-13.36L97.38-13.36L97.38-13.36Q96.68-13.36 96.50-13.36L96.50-13.36L96.50-13.36Q95.79-13.36 95.46-13.39L95.46-13.39L95.35-12.80L95.35-12.80Q95.27-12.14 95.27-11.62L95.27-11.62L95.27-11.62Q95.27-11.17 95.35-10.58L95.35-10.58L95.35-10.58Q95.42-9.99 95.42-9.55L95.42-9.55L95.46-5.14L95.42-3.29L95.42-3.29Q95.39-2.96 95.39-2.37L95.39-2.37L95.39-2.37Q95.87-2.33 96.79-2.33L96.79-2.33L96.79-2.33Q97.57-2.29 99.20-2.29L99.20-2.29L101.19-2.26L101.19-2.26Q101.82-2.22 103.12-2.22L103.12-2.22L103.12-2.22Q103.90-2.22 105.15-2.29L105.15-2.29L106.71-2.33L106.71-2.33Q107.60-2.33 108.19-2.29L108.19-2.29L108.19-2.29Q108.78-2.26 109.08-2.26L109.08-2.26L109.08-2.26Q109.37-2.26 109.43-2.15L109.43-2.15L109.43-2.15Q109.48-2.03 109.48-1.66L109.48-1.66L109.48-1.66Q109.48-1.41 109.45-1.13L109.45-1.13L109.45-1.13Q109.41-0.85 109.41-0.52L109.41-0.52L109.41-0.52Q109.41-0.26 109.22-0.17L109.22-0.17L109.22-0.17Q109.04-0.07 108.63-0.07L108.63-0.07L108.63-0.07Q108.22-0.07 107.97-0.11L107.97-0.11L107.97-0.11Q106.97-0.22 103.93-0.22L103.93-0.22L103.93-0.22Q102.08-0.22 101.27-0.18L101.27-0.18L101.27-0.18Q100.64-0.15 99.20-0.15L99.20-0.15L95.76-0.18L95.76-0.18Q95.16-0.22 94.35-0.22L94.35-0.22L94.35-0.22Q93.83-0.22 93.67-0.35L93.67-0.35L93.67-0.35Q93.50-0.48 93.50-0.78L93.50-0.78L93.54-1.37L93.54-1.37Q93.57-1.52 93.57-1.70L93.57-1.70L93.57-1.70Q93.57-1.81 93.54-2.24L93.54-2.24L93.54-2.24Q93.50-2.66 93.50-3.81L93.50-3.81L93.50-3.81Q93.50-4.92 93.42-7.44L93.42-7.44L93.42-7.44Q93.31-9.51 93.31-11.43L93.31-11.43L93.31-11.43Q93.31-12.25 93.50-16.13L93.50-16.13L93.50-16.13Q93.54-16.91 93.57-17.69L93.57-17.69L93.57-17.69Q93.61-18.46 93.61-19.09L93.61-19.09L93.61-19.09Q93.61-23.38 93.50-24.75L93.50-24.75L93.50-24.75Q93.39-25.64 94.57-25.64L94.57-25.64L94.57-25.64Q94.87-25.64 95.53-25.57L95.53-25.57L95.53-25.57Q96.13-25.49 96.42-25.49L96.42-25.49L98.75-25.57L98.75-25.57Q101.27-25.71 102.64-25.71L102.64-25.71L102.64-25.71Q104.23-25.71 107.11-25.64L107.11-25.64L107.11-25.64Q108.04-25.60 109.08-25.60L109.08-25.60L109.08-25.60Q109.52-25.60 109.63-25.38L109.63-25.38L109.63-25.38Q109.74-25.16 109.72-24.92L109.72-24.92L109.72-24.92Q109.70-24.68 109.70-24.61L109.70-24.61ZM130.54-26.60L130.54-26.60Q130.98-26.57 131.07-26.38L131.07-26.38L131.07-26.38Q131.16-26.20 131.15-25.88L131.15-25.88L131.15-25.88Q131.13-25.57 131.13-25.42L131.13-25.42L131.13-25.42Q131.16-24.94 130.94-24.75L130.94-24.75L130.94-24.75Q130.72-24.57 130.24-24.57L130.24-24.57L130.24-24.57Q129.94-24.57 129.11-24.53L129.11-24.53L129.11-24.53Q128.28-24.49 127.09-24.53L127.09-24.53L126.95-24.53L126.87-17.83L126.84-11.32L126.84-11.32Q126.84-9.84 127.00-7.57L127.00-7.57L127.00-7.57Q127.17-5.29 127.21-4.70L127.21-4.70L127.21-4.70Q127.43-1.74 127.43-1.37L127.43-1.37L127.43-1.37Q127.46-0.63 127.09-0.41L127.09-0.41L127.09-0.41Q126.72-0.18 125.80-0.18L125.80-0.18L124.17-0.22L124.17-0.22Q123.99-0.22 118.10-0.33L118.10-0.33L115.81-0.37L115.81-0.37Q115.44-0.37 115.44-1.11L115.44-1.11L115.44-1.11Q115.44-1.37 115.51-2.11L115.51-2.11L115.51-2.11Q115.59-3.07 115.59-3.59L115.59-3.59L115.59-3.59Q115.51-4.55 115.51-6.96L115.51-6.96L115.51-6.96Q115.51-10.17 115.61-13.84L115.61-13.84L115.61-13.84Q115.70-17.50 115.85-19.35L115.85-19.35L115.85-19.35Q115.92-20.31 115.92-21.94L115.92-21.94L115.92-21.94Q115.92-23.75 115.81-24.68L115.81-24.68L115.14-24.72L112.07-24.64L112.07-24.64Q111.78-24.64 111.78-25.23L111.78-25.23L111.81-26.05L111.81-26.05Q111.81-26.34 111.91-26.44L111.91-26.44L111.91-26.44Q112.00-26.53 112.22-26.53L112.22-26.53L112.22-26.53Q112.37-26.53 112.59-26.49L112.59-26.49L112.59-26.49Q112.81-26.45 113.11-26.45L113.11-26.45L120.99-26.49L127.43-26.57L127.43-26.57Q128.94-26.60 130.54-26.60L130.54-26.60Z" fill="url(#editing-shiny-gradient)"></path></g></g><g filter="url(#editing-shiny2)"><g transform="translate(183.73341143131256, 88.55999946594238)"><path d="M3.44-26.08L3.44-26.08Q3.92-26.05 4.38-26.07L4.38-26.07L4.38-26.07Q4.85-26.08 5.18-26.08L5.18-26.08L5.18-26.08Q5.99-26.08 6.36-26.05L6.36-26.05L6.36-26.05Q6.81-26.01 6.99-25.86L6.99-25.86L6.99-25.86Q7.18-25.71 7.18-25.46L7.18-25.46L7.18-25.46Q7.18-25.27 7.14-25.05L7.14-25.05L7.14-25.05Q7.10-24.83 7.07-24.64L7.07-24.64L7.07-24.64Q6.66-21.50 6.62-18.17L6.62-18.17L6.62-18.17Q6.59-17.20 6.59-15.21L6.59-15.21L6.62-10.73L6.62-10.73Q6.66-10.17 6.66-9.58L6.66-9.58L6.70-8.10L6.70-8.10Q6.77-6.18 6.77-5.25L6.77-5.25L6.77-5.25Q6.77-4.55 6.73-4.40L6.73-4.40L6.73-4.40Q6.70-4.25 6.70-3.55L6.70-3.55L6.73-1.52L6.73-1.52Q6.77-1.07 6.77-0.41L6.77-0.41L6.77-0.41Q6.81 0.07 6.49 0.20L6.49 0.20L6.49 0.20Q6.18 0.33 5.66 0.30L5.66 0.30L2.29 0.30L2.29 0.30Q1.74 0.33 1.59 0.06L1.59 0.06L1.59 0.06Q1.44-0.22 1.41-0.85L1.41-0.85L1.41-0.85Q1.33-1.11 1.48-2.22L1.48-2.22L1.48-2.22Q1.63-3.26 1.63-4.00L1.63-4.00L1.63-4.00Q1.63-4.25 1.89-8.99L1.89-8.99L1.89-8.99Q2.11-12.47 2.11-12.80L2.11-12.80L2.18-16.43L2.26-19.79L2.33-21.79L2.40-23.13L2.40-24.68L2.40-24.68Q2.40-26.12 3.15-26.12L3.15-26.12L3.15-26.12Q3.33-26.12 3.44-26.08L3.44-26.08ZM20.16-12.88L20.16-12.88Q22.31-12.10 24.59-10.27L24.59-10.27L24.59-10.27Q26.86-8.44 26.86-4.81L26.86-4.81L26.86-4.81Q26.86-2.44 25.18-1.35L25.18-1.35L25.18-1.35Q23.49-0.26 21.77-0.06L21.77-0.06L21.77-0.06Q20.05 0.15 18.17 0.15L18.17 0.15L14.58 0.22L12.32 0.26L12.32 0.26Q11.73 0.26 11.51-0.11L11.51-0.11L11.51-0.11Q11.29-0.48 11.29-1.15L11.29-1.15L11.32-9.36L11.32-11.14L11.32-11.14Q11.32-12.54 11.43-13.69L11.43-13.69L11.54-18.20L11.54-18.20Q11.54-18.98 11.58-20.52L11.58-20.52L11.58-20.52Q11.62-22.05 11.65-22.46L11.65-22.46L11.65-22.46Q11.69-22.75 11.69-23.49L11.69-23.49L11.69-23.49Q11.69-24.79 11.58-25.34L11.58-25.34L11.58-25.34Q11.54-25.42 11.54-25.53L11.54-25.53L11.54-25.53Q11.54-25.75 11.95-25.86L11.95-25.86L11.95-25.86Q12.32-25.97 13.91-26.18L13.91-26.18L13.91-26.18Q15.50-26.38 16.80-26.38L16.80-26.38L16.80-26.38Q20.31-26.38 22.37-24.97L22.37-24.97L22.37-24.97Q24.42-23.57 24.42-19.65L24.42-19.65L24.42-19.65Q24.42-16.09 22.27-14.10L22.27-14.10L22.27-14.10Q21.31-13.28 20.16-12.88L20.16-12.88ZM16.13-14.76L16.13-14.76Q16.13-14.39 16.09-14.12L16.09-14.12L16.09-14.12Q16.06-13.84 16.06-13.69L16.06-13.69L16.06-13.69Q16.06-13.47 16.09-13.41L16.09-13.41L16.09-13.41Q16.13-13.36 16.32-13.36L16.32-13.36L16.32-13.36Q17.06-13.36 18.61-13.76L18.61-13.76L18.61-13.76Q20.16-14.17 21.61-15.50L21.61-15.50L21.61-15.50Q23.05-16.84 23.05-19.35L23.05-19.35L23.05-19.35Q23.05-22.02 22.13-23.31L22.13-23.31L22.13-23.31Q21.20-24.61 19.81-24.96L19.81-24.96L19.81-24.96Q18.43-25.31 16.28-25.31L16.28-25.31L16.21-22.94L16.21-22.94Q16.13-20.28 16.13-18.98L16.13-18.98L16.13-14.76ZM17.28-0.55L17.28-0.55Q20.91-0.55 22.72-1.72L22.72-1.72L22.72-1.72Q24.53-2.89 24.53-4.85L24.53-4.85L24.53-4.85Q24.53-9.80 20.28-11.58L20.28-11.58L20.28-11.58Q18.39-12.28 16.02-12.25L16.02-12.25L16.02-12.25Q15.98-12.14 15.98-11.95L15.98-11.95L15.98-11.95Q15.95-11.77 15.95-11.10L15.95-11.10L16.02-8.73L16.09-6.73L16.09-6.73Q16.09-6.22 16.06-5.99L16.06-5.99L16.02-5.03L16.09-2.85L16.17-1.15L16.17-1.15Q16.17-0.70 16.34-0.61L16.34-0.61L16.34-0.61Q16.50-0.52 16.82-0.54L16.82-0.54L16.82-0.54Q17.13-0.55 17.28-0.55L17.28-0.55ZM37.44-25.83L37.44-11.03L37.44-11.03Q37.44-10.21 37.54-9.62L37.54-9.62L37.54-9.62Q37.63-9.03 38.09-8.49L38.09-8.49L38.09-8.49Q38.55-7.95 39.59-7.95L39.59-7.95L39.59-7.95Q41.03-7.95 41.55-9.05L41.55-9.05L41.55-9.05Q42.07-10.14 42.07-11.43L42.07-11.43L42.11-13.28L42.11-13.28Q42.22-17.39 42.22-17.87L42.22-17.87L42.22-17.87Q42.22-18.91 42.18-19.28L42.18-19.28L42.18-19.28Q42.18-20.57 42.03-23.24L42.03-23.24L41.96-25.27L41.96-25.27Q41.96-25.94 42.14-26.20L42.14-26.20L42.14-26.20Q42.33-26.45 42.85-26.45L42.85-26.45L47.55-26.45L48.10-26.49L48.10-26.49Q48.47-26.49 48.71-26.27L48.71-26.27L48.71-26.27Q48.95-26.05 49.02-25.38L49.02-25.38L49.02-25.38Q49.10-24.75 49.10-21.02L49.10-21.02L49.06-13.06L49.06-13.06Q49.06-10.99 48.40-8.08L48.40-8.08L48.40-8.08Q47.73-5.18 45.62-2.70L45.62-2.70L45.62-2.70Q43.51-0.22 39.59-0.22L39.59-0.22L39.59-0.22Q30.78-0.22 30.12-8.66L30.12-8.66L30.12-8.66Q30.08-9.03 30.08-10.14L30.08-10.14L30.08-10.14Q30.08-11.29 30.15-14.17L30.15-14.17L30.15-14.17Q30.27-17.50 30.23-19.13L30.23-19.13L30.23-19.13Q30.23-21.35 30.15-23.79L30.15-23.79L30.15-23.79Q30.12-24.49 30.12-25.23L30.12-25.23L30.12-25.23Q30.12-25.38 30.10-25.79L30.10-25.79L30.10-25.79Q30.08-26.20 30.25-26.38L30.25-26.38L30.25-26.38Q30.41-26.57 30.86-26.57L30.86-26.57L33.00-26.53L33.00-26.53Q33.74-26.53 34.08-26.57L34.08-26.57L34.08-26.57Q34.89-26.64 35.41-26.64L35.41-26.64L36.89-26.60L36.89-26.60Q37.22-26.60 37.31-26.44L37.31-26.44L37.31-26.44Q37.41-26.27 37.44-25.83L37.44-25.83ZM67.23-22.72L67.23-22.72Q69.41-20.79 70.11-18.15L70.11-18.15L70.11-18.15Q70.82-15.50 70.82-12.32L70.82-12.32L70.82-12.32Q70.82-10.66 70.26-8.58L70.26-8.58L70.26-8.58Q69.71-6.51 68.73-4.74L68.73-4.74L68.73-4.74Q67.75-2.96 66.45-2.11L66.45-2.11L66.45-2.11Q64.68-0.96 62.05-0.50L62.05-0.50L62.05-0.50Q59.42-0.04 57.90-0.04L57.90-0.04L54.13-0.04L54.13-0.04Q53.72-0.04 53.61-0.22L53.61-0.22L53.61-0.22Q53.50-0.41 53.61-0.63L53.61-0.63L53.61-0.63Q53.65-0.74 53.65-0.92L53.65-0.92L53.65-0.92Q53.65-1.07 53.63-1.31L53.63-1.31L53.63-1.31Q53.61-1.55 53.61-2.00L53.61-2.00L53.61-2.00Q53.61-3.22 53.58-4.40L53.58-4.40L53.50-11.10L53.54-18.54L53.54-18.54Q53.54-19.50 53.50-20.41L53.50-20.41L53.50-20.41Q53.46-21.31 53.43-21.98L53.43-21.98L53.35-24.31L53.35-24.31Q53.39-25.16 53.46-25.49L53.46-25.49L53.46-25.49Q53.54-25.83 53.76-25.83L53.76-25.83L53.87-25.83L53.87-25.83Q54.02-25.83 54.20-25.77L54.20-25.77L54.20-25.77Q54.39-25.71 54.54-25.71L54.54-25.71L54.54-25.71Q54.83-25.71 55.26-25.75L55.26-25.75L55.26-25.75Q55.68-25.79 56.13-25.79L56.13-25.79L57.57-25.75L57.57-25.75Q59.64-25.75 61.31-25.57L61.31-25.57L61.31-25.57Q61.46-25.57 62.29-25.49L62.29-25.49L62.29-25.49Q63.12-25.42 64.44-24.72L64.44-24.72L64.44-24.72Q65.75-24.01 67.23-22.72L67.23-22.72ZM59.72-1.44L59.72-1.44Q62.27-1.29 64.38-2.37L64.38-2.37L64.38-2.37Q66.41-3.40 67.75-5.81L67.75-5.81L67.75-5.81Q69.08-8.21 69.08-12.32L69.08-12.32L69.08-12.32Q69.08-16.39 67.77-18.85L67.77-18.85L67.77-18.85Q66.45-21.31 64.45-22.53L64.45-22.53L64.45-22.53Q62.42-23.75 59.83-23.79L59.83-23.79L59.68-20.42L59.68-20.42Q59.57-18.61 59.57-15.43L59.57-15.43L59.57-15.43Q59.57-15.13 59.68-12.14L59.68-12.14L59.68-12.14Q59.79-10.88 59.79-9.77L59.79-9.77L59.75-5.00L59.75-5.00Q59.72-3.88 59.72-1.44L59.72-1.44ZM82.29-26.20L82.29-26.20Q84.80-26.20 86.12-25.34L86.12-25.34L86.12-25.34Q87.43-24.49 87.95-23.77L87.95-23.77L87.95-23.77Q88.47-23.05 88.61-22.90L88.61-22.90L88.61-22.90Q88.91-22.57 88.91-22.20L88.91-22.20L88.91-22.20Q88.91-21.76 88.58-21.42L88.58-21.42L88.58-21.42Q88.24-21.09 87.75-20.68L87.75-20.68L87.75-20.68Q87.25-20.28 86.84-19.98L86.84-19.98L86.84-19.98Q86.65-19.87 86.51-19.87L86.51-19.87L86.51-19.87Q86.17-19.87 85.84-20.20L85.84-20.20L85.84-20.20Q85.77-20.28 84.77-21.44L84.77-21.44L84.77-21.44Q83.77-22.61 81.77-22.61L81.77-22.61L81.77-22.61Q80.25-22.61 79.14-21.00L79.14-21.00L79.14-21.00Q78.03-19.39 77.46-17.11L77.46-17.11L77.46-17.11Q76.89-14.84 76.89-12.88L76.89-12.88L76.89-12.88Q76.89-10.84 77.48-8.55L77.48-8.55L77.48-8.55Q78.07-6.25 79.38-4.63L79.38-4.63L79.38-4.63Q80.70-3.00 82.69-3.00L82.69-3.00L82.69-3.00Q85.36-3.00 86.76-5.07L86.76-5.07L86.76-5.07Q87.36-6.03 87.54-7.18L87.54-7.18L86.47-7.18L84.80-7.21L81.07-7.25L81.07-7.25Q80.44-7.25 80.44-7.84L80.44-7.84L80.44-9.29L80.44-9.29Q80.44-9.66 80.55-9.75L80.55-9.75L80.55-9.75Q80.66-9.84 80.84-9.84L80.84-9.84L82.55-9.84L90.13-10.03L90.13-10.03Q90.46-10.03 90.63-9.69L90.63-9.69L90.63-9.69Q90.80-9.36 90.76-8.81L90.76-8.81L90.76-8.81Q90.76-7.51 90.28-5.46L90.28-5.46L90.28-5.46Q89.80-3.40 87.91-1.46L87.91-1.46L87.91-1.46Q86.02 0.48 82.29 0.48L82.29 0.48L82.29 0.48Q79.51 0.48 77.53-1.63L77.53-1.63L77.53-1.63Q75.55-3.74 74.57-7.05L74.57-7.05L74.57-7.05Q73.59-10.36 73.59-13.84L73.59-13.84L73.59-13.84Q73.59-17.09 74.80-19.94L74.80-19.94L74.80-19.94Q76.00-22.79 78.01-24.49L78.01-24.49L78.01-24.49Q80.03-26.20 82.29-26.20L82.29-26.20ZM109.70-24.61L109.70-24.20L109.70-24.20Q109.70-23.35 109.56-23.35L109.56-23.35L109.56-23.35Q109.33-23.35 109.06-23.40L109.06-23.40L109.06-23.40Q108.78-23.46 108.37-23.46L108.37-23.46L102.45-23.46L97.86-23.49L97.86-23.49Q97.64-23.49 96.20-23.38L96.20-23.38L95.35-23.31L95.27-22.31L95.27-22.31Q95.24-21.76 95.24-20.57L95.24-20.57L95.24-20.57Q95.24-19.98 95.31-19.02L95.31-19.02L95.31-19.02Q95.39-18.13 95.39-17.72L95.39-17.72L95.39-16.24L95.39-16.24Q95.39-15.65 95.42-15.32L95.42-15.32L95.42-15.32Q95.76-15.28 96.42-15.28L96.42-15.28L97.90-15.28L97.90-15.28Q98.12-15.28 98.79-15.35L98.79-15.35L98.79-15.35Q99.75-15.43 100.45-15.43L100.45-15.43L100.45-15.43Q100.75-15.43 102.53-15.32L102.53-15.32L103.34-15.28L103.34-15.28Q103.64-15.28 104.19-15.34L104.19-15.34L104.19-15.34Q104.75-15.39 105.27-15.39L105.27-15.39L106.49-15.35L106.49-15.35Q107.45-15.28 107.82-15.28L107.82-15.28L107.82-15.28Q108.22-15.28 108.37-15.32L108.37-15.32L108.59-15.35L108.59-15.35Q108.85-15.35 108.96-15.19L108.96-15.19L108.96-15.19Q109.08-15.02 109.04-14.87L109.04-14.87L109.04-14.87Q109.00-14.61 109.00-14.23L109.00-14.23L109.00-14.23Q109.00-13.84 108.96-13.54L108.96-13.54L108.96-13.54Q108.93-13.25 108.85-13.19L108.85-13.19L108.85-13.19Q108.78-13.13 108.41-13.13L108.41-13.13L106.93-13.28L106.93-13.28Q104.16-13.54 103.30-13.54L103.30-13.54L103.30-13.54Q100.16-13.54 98.68-13.43L98.68-13.43L98.68-13.43Q98.09-13.36 97.38-13.36L97.38-13.36L97.38-13.36Q96.68-13.36 96.50-13.36L96.50-13.36L96.50-13.36Q95.79-13.36 95.46-13.39L95.46-13.39L95.35-12.80L95.35-12.80Q95.27-12.14 95.27-11.62L95.27-11.62L95.27-11.62Q95.27-11.17 95.35-10.58L95.35-10.58L95.35-10.58Q95.42-9.99 95.42-9.55L95.42-9.55L95.46-5.14L95.42-3.29L95.42-3.29Q95.39-2.96 95.39-2.37L95.39-2.37L95.39-2.37Q95.87-2.33 96.79-2.33L96.79-2.33L96.79-2.33Q97.57-2.29 99.20-2.29L99.20-2.29L101.19-2.26L101.19-2.26Q101.82-2.22 103.12-2.22L103.12-2.22L103.12-2.22Q103.90-2.22 105.15-2.29L105.15-2.29L106.71-2.33L106.71-2.33Q107.60-2.33 108.19-2.29L108.19-2.29L108.19-2.29Q108.78-2.26 109.08-2.26L109.08-2.26L109.08-2.26Q109.37-2.26 109.43-2.15L109.43-2.15L109.43-2.15Q109.48-2.03 109.48-1.66L109.48-1.66L109.48-1.66Q109.48-1.41 109.45-1.13L109.45-1.13L109.45-1.13Q109.41-0.85 109.41-0.52L109.41-0.52L109.41-0.52Q109.41-0.26 109.22-0.17L109.22-0.17L109.22-0.17Q109.04-0.07 108.63-0.07L108.63-0.07L108.63-0.07Q108.22-0.07 107.97-0.11L107.97-0.11L107.97-0.11Q106.97-0.22 103.93-0.22L103.93-0.22L103.93-0.22Q102.08-0.22 101.27-0.18L101.27-0.18L101.27-0.18Q100.64-0.15 99.20-0.15L99.20-0.15L95.76-0.18L95.76-0.18Q95.16-0.22 94.35-0.22L94.35-0.22L94.35-0.22Q93.83-0.22 93.67-0.35L93.67-0.35L93.67-0.35Q93.50-0.48 93.50-0.78L93.50-0.78L93.54-1.37L93.54-1.37Q93.57-1.52 93.57-1.70L93.57-1.70L93.57-1.70Q93.57-1.81 93.54-2.24L93.54-2.24L93.54-2.24Q93.50-2.66 93.50-3.81L93.50-3.81L93.50-3.81Q93.50-4.92 93.42-7.44L93.42-7.44L93.42-7.44Q93.31-9.51 93.31-11.43L93.31-11.43L93.31-11.43Q93.31-12.25 93.50-16.13L93.50-16.13L93.50-16.13Q93.54-16.91 93.57-17.69L93.57-17.69L93.57-17.69Q93.61-18.46 93.61-19.09L93.61-19.09L93.61-19.09Q93.61-23.38 93.50-24.75L93.50-24.75L93.50-24.75Q93.39-25.64 94.57-25.64L94.57-25.64L94.57-25.64Q94.87-25.64 95.53-25.57L95.53-25.57L95.53-25.57Q96.13-25.49 96.42-25.49L96.42-25.49L98.75-25.57L98.75-25.57Q101.27-25.71 102.64-25.71L102.64-25.71L102.64-25.71Q104.23-25.71 107.11-25.64L107.11-25.64L107.11-25.64Q108.04-25.60 109.08-25.60L109.08-25.60L109.08-25.60Q109.52-25.60 109.63-25.38L109.63-25.38L109.63-25.38Q109.74-25.16 109.72-24.92L109.72-24.92L109.72-24.92Q109.70-24.68 109.70-24.61L109.70-24.61ZM130.54-26.60L130.54-26.60Q130.98-26.57 131.07-26.38L131.07-26.38L131.07-26.38Q131.16-26.20 131.15-25.88L131.15-25.88L131.15-25.88Q131.13-25.57 131.13-25.42L131.13-25.42L131.13-25.42Q131.16-24.94 130.94-24.75L130.94-24.75L130.94-24.75Q130.72-24.57 130.24-24.57L130.24-24.57L130.24-24.57Q129.94-24.57 129.11-24.53L129.11-24.53L129.11-24.53Q128.28-24.49 127.09-24.53L127.09-24.53L126.95-24.53L126.87-17.83L126.84-11.32L126.84-11.32Q126.84-9.84 127.00-7.57L127.00-7.57L127.00-7.57Q127.17-5.29 127.21-4.70L127.21-4.70L127.21-4.70Q127.43-1.74 127.43-1.37L127.43-1.37L127.43-1.37Q127.46-0.63 127.09-0.41L127.09-0.41L127.09-0.41Q126.72-0.18 125.80-0.18L125.80-0.18L124.17-0.22L124.17-0.22Q123.99-0.22 118.10-0.33L118.10-0.33L115.81-0.37L115.81-0.37Q115.44-0.37 115.44-1.11L115.44-1.11L115.44-1.11Q115.44-1.37 115.51-2.11L115.51-2.11L115.51-2.11Q115.59-3.07 115.59-3.59L115.59-3.59L115.59-3.59Q115.51-4.55 115.51-6.96L115.51-6.96L115.51-6.96Q115.51-10.17 115.61-13.84L115.61-13.84L115.61-13.84Q115.70-17.50 115.85-19.35L115.85-19.35L115.85-19.35Q115.92-20.31 115.92-21.94L115.92-21.94L115.92-21.94Q115.92-23.75 115.81-24.68L115.81-24.68L115.14-24.72L112.07-24.64L112.07-24.64Q111.78-24.64 111.78-25.23L111.78-25.23L111.81-26.05L111.81-26.05Q111.81-26.34 111.91-26.44L111.91-26.44L111.91-26.44Q112.00-26.53 112.22-26.53L112.22-26.53L112.22-26.53Q112.37-26.53 112.59-26.49L112.59-26.49L112.59-26.49Q112.81-26.45 113.11-26.45L113.11-26.45L120.99-26.49L127.43-26.57L127.43-26.57Q128.94-26.60 130.54-26.60L130.54-26.60Z" fill="url(#editing-shiny-gradient2)"></path></g></g><style>text {
  font-size: 64px;
  font-family: Arial Black;
  dominant-baseline: central;
  text-anchor: middle;
}</style></svg>